<svg width="12" height="12" viewBox="0 0 12 12" fill="none" xmlns="http://www.w3.org/2000/svg">
<g clip-path="url(#clip0_150_320)">
<path d="M6 11C8.76142 11 11 8.76142 11 6C11 3.23858 8.76142 1 6 1C3.23858 1 1 3.23858 1 6C1 8.76142 3.23858 11 6 11Z" stroke="black" stroke-opacity="0.3" stroke-width="0.583333" stroke-linecap="round" stroke-linejoin="round"/>
<path d="M6 8V6" stroke="black" stroke-opacity="0.3" stroke-width="0.583333" stroke-linecap="round" stroke-linejoin="round"/>
<path d="M6.0625 4.125H6M6.125 4.125C6.125 4.05596 6.06905 4 6 4C5.93095 4 5.875 4.05596 5.875 4.125C5.875 4.19403 5.93095 4.25 6 4.25C6.06905 4.25 6.125 4.19403 6.125 4.125Z" stroke="black" stroke-opacity="0.3" stroke-width="0.583333" stroke-linecap="round" stroke-linejoin="round"/>
</g>
<defs>
<clipPath id="clip0_150_320">
<rect width="12" height="12" fill="white"/>
</clipPath>
</defs>
</svg>
